<svg width="12" height="12" viewBox="0 0 12 12" fill="none" xmlns="http://www.w3.org/2000/svg">
<path fill-rule="evenodd" clip-rule="evenodd" d="M10.812 0H0.631603C0.282784 0 0 0.296531 0 0.662309V11.3377C0 11.7034 0.282683 12 0.631603 12H6.11297V7.35938H4.62664V5.54297H6.11297V4.20626C6.11297 2.65631 7.01565 1.81233 8.33416 1.81233C8.96572 1.81233 9.50854 1.86164 9.66677 1.88368V3.50347L8.75745 3.50391C8.03998 3.50391 7.90104 3.86142 7.90104 4.38606V5.54297H9.61633L9.39298 7.35938H7.90104V12H10.8121C11.1609 12 11.4437 11.7035 11.4437 11.3377V0.662309C11.4437 0.296531 11.1609 0 10.812 0Z" fill="#262626"/>
</svg>
