<svg width="12" height="12" viewBox="0 0 12 12" fill="none" xmlns="http://www.w3.org/2000/svg">
<mask id="mask0_12_82" style="mask-type:alpha" maskUnits="userSpaceOnUse" x="0" y="0" width="12" height="12">
<path d="M0 0.00402832H11.44V11.999H0V0.00402832Z" fill="white"/>
</mask>
<g mask="url(#mask0_12_82)">
<path fill-rule="evenodd" clip-rule="evenodd" d="M5.72 0.00402832C4.167 0.00402832 3.972 0.0100283 3.362 0.0400283C2.752 0.0690283 2.337 0.170028 1.973 0.319028C1.58833 0.471508 1.24233 0.707525 0.96 1.01003C0.666839 1.31295 0.441812 1.67504 0.3 2.07203C0.16 2.45403 0.062 2.89003 0.034 3.52903C0.007 4.16903 0 4.37303 0 6.00203C0 7.63103 0.007 7.83503 0.034 8.47503C0.062 9.11303 0.16 9.54903 0.3 9.93003C0.446 10.324 0.642 10.659 0.96 10.992C1.278 11.326 1.597 11.531 1.973 11.684C2.337 11.832 2.753 11.934 3.362 11.963C3.972 11.993 4.167 11.999 5.72 11.999C7.273 11.999 7.468 11.992 8.078 11.963C8.688 11.933 9.103 11.833 9.467 11.684C9.85176 11.5313 10.1978 11.2949 10.48 10.992C10.798 10.659 10.994 10.324 11.14 9.93003C11.281 9.54803 11.378 9.11203 11.406 8.47403C11.433 7.83403 11.44 7.63003 11.44 6.00103C11.44 4.37103 11.433 4.16803 11.406 3.52803C11.378 2.88903 11.281 2.45303 11.14 2.07203C10.9983 1.6747 10.7733 1.31227 10.48 1.00903C10.1975 0.707248 9.85148 0.471925 9.467 0.320028C9.103 0.171028 8.687 0.0700283 8.078 0.0400283C7.468 0.0120283 7.273 0.00502832 5.72 0.00502832V0.00402832ZM5.72 1.08403C7.247 1.08403 7.428 1.09103 8.031 1.11903C8.589 1.14603 8.892 1.24403 9.094 1.32603C9.361 1.43503 9.551 1.56503 9.751 1.77503C9.951 1.98503 10.075 2.18503 10.179 2.46503C10.257 2.67503 10.351 2.99303 10.376 3.57803C10.404 4.21103 10.409 4.40003 10.409 6.00203C10.409 7.60303 10.404 7.79303 10.376 8.42603C10.351 9.01003 10.257 9.32803 10.179 9.53903C10.0886 9.7976 9.94248 10.0332 9.751 10.229C9.551 10.439 9.361 10.569 9.094 10.678C8.892 10.76 8.589 10.858 8.031 10.884C7.428 10.914 7.247 10.919 5.72 10.919C4.193 10.919 4.012 10.913 3.409 10.884C2.851 10.858 2.549 10.76 2.347 10.678C2.09633 10.5804 1.87127 10.4269 1.689 10.229C1.49752 10.0332 1.35141 9.7976 1.261 9.53903C1.183 9.32803 1.089 9.01003 1.064 8.42603C1.036 7.79303 1.031 7.60303 1.031 6.00203C1.031 4.40003 1.036 4.21103 1.064 3.57803C1.089 2.99303 1.183 2.67603 1.261 2.46403C1.365 2.18403 1.489 1.98403 1.689 1.77403C1.889 1.56403 2.079 1.43403 2.347 1.32603C2.548 1.24403 2.851 1.14603 3.409 1.11903C4.012 1.09103 4.193 1.08503 5.72 1.08503V1.08403Z" fill="#262626"/>
</g>
<path fill-rule="evenodd" clip-rule="evenodd" d="M5.72 8.00108C4.667 8.00108 3.813 7.10608 3.813 6.00108C3.813 4.89808 4.667 4.00308 5.72 4.00308C6.773 4.00308 7.627 4.89808 7.627 6.00208C7.627 7.10608 6.773 8.00208 5.72 8.00208V8.00108ZM5.72 2.92108C4.098 2.92108 2.783 4.30108 2.783 6.00108C2.783 7.70308 4.098 9.08208 5.72 9.08208C7.342 9.08208 8.657 7.70308 8.657 6.00208C8.657 4.30108 7.342 2.92208 5.72 2.92208V2.92108ZM9.46 2.80008C9.46 3.19808 9.152 3.52008 8.773 3.52008C8.394 3.52008 8.087 3.19808 8.087 2.80008C8.087 2.40308 8.394 2.08008 8.773 2.08008C9.153 2.08008 9.46 2.40308 9.46 2.80008Z" fill="#262626"/>
</svg>
