<svg width="12" height="12" viewBox="0 0 12 12" fill="none" xmlns="http://www.w3.org/2000/svg">
<path fill-rule="evenodd" clip-rule="evenodd" d="M5.72178 0C2.56173 0 0 2.68627 0 5.99995C0 8.54188 1.50816 10.7149 3.63668 11.5891C3.58662 11.1144 3.54146 10.3843 3.65651 9.86602C3.76044 9.39778 4.32745 6.88365 4.32745 6.88365C4.32745 6.88365 4.15626 6.52425 4.15626 5.99284C4.15626 5.15857 4.6174 4.5357 5.19161 4.5357C5.67973 4.5357 5.91557 4.92005 5.91557 5.38089C5.91557 5.8957 5.60301 6.66533 5.44167 7.37857C5.30689 7.9758 5.72729 8.46282 6.28898 8.46282C7.306 8.46282 8.0877 7.33837 8.0877 5.71526C8.0877 4.27867 7.10326 3.27422 5.69767 3.27422C4.06966 3.27422 3.11404 4.55472 3.11404 5.87807C3.11404 6.39378 3.30345 6.94672 3.53986 7.24731C3.58658 7.30672 3.59345 7.35881 3.57951 7.41941C3.53604 7.60894 3.43955 8.01644 3.42062 8.09985C3.39561 8.20968 3.33764 8.23299 3.22928 8.1801C2.51459 7.83126 2.06782 6.7357 2.06782 5.8557C2.06782 3.96296 3.37922 2.22484 5.84842 2.22484C7.8333 2.22484 9.37584 3.708 9.37584 5.69012C9.37584 7.75798 8.13249 9.42212 6.40671 9.42212C5.82694 9.42212 5.28184 9.10627 5.0953 8.73318C5.0953 8.73318 4.80836 9.87877 4.73881 10.1595C4.60963 10.6807 4.26095 11.3339 4.02765 11.7324C4.56305 11.9062 5.13199 12 5.72178 12C8.88193 12 11.4437 9.31373 11.4437 5.99995C11.4437 2.68627 8.88193 0 5.72178 0Z" fill="#262626"/>
</svg>
