<svg width="14" height="7" viewBox="0 0 14 7" fill="none" xmlns="http://www.w3.org/2000/svg">
<path d="M0.14953 3.86447C0.121981 3.86447 0.100113 3.88848 0.0965626 3.92272L0 4.74915L0.0965626 5.56134C0.100113 5.59558 0.121981 5.61942 0.14953 5.61942C0.176227 5.61942 0.197953 5.59574 0.202213 5.56166V5.5615C0.202213 5.5615 0.202213 5.5615 0.202213 5.56166L0.316669 4.74915L0.202213 3.92256C0.198095 3.88848 0.176085 3.86447 0.14953 3.86447ZM0.692553 3.41294C0.688009 3.37742 0.66543 3.35293 0.637597 3.35293C0.609622 3.35293 0.586476 3.37822 0.582642 3.41294C0.582642 3.41326 0.45285 4.74915 0.45285 4.74915L0.582642 6.05576C0.586334 6.0908 0.60948 6.11608 0.637597 6.11608C0.665288 6.11608 0.687867 6.09144 0.692411 6.05608L0.840095 4.74915L0.692553 3.41294ZM2.73798 2.18041C2.68472 2.18041 2.6407 2.22953 2.63815 2.29193L2.53477 4.75027L2.63815 6.33897C2.64085 6.40106 2.68472 6.45002 2.73798 6.45002C2.79094 6.45002 2.83482 6.4009 2.83795 6.33865V6.33913L2.95482 4.75027L2.83795 2.29193C2.83482 2.22953 2.79094 2.18041 2.73798 2.18041ZM1.67934 3.03484C1.63844 3.03484 1.60507 3.07164 1.6018 3.12076L1.48536 4.74963L1.6018 6.32553C1.60493 6.37433 1.63844 6.41114 1.67934 6.41114C1.71981 6.41114 1.75318 6.37433 1.75673 6.32553L1.88908 4.74963L1.75673 3.12044C1.75318 3.07164 1.71981 3.03484 1.67934 3.03484ZM3.8138 6.44986C3.87983 6.44986 3.93351 6.38986 3.9362 6.31305L4.03759 4.75107L3.93635 1.47814C3.93365 1.40134 3.87997 1.34133 3.81394 1.34133C3.74734 1.34133 3.69352 1.4015 3.69139 1.4783C3.69139 1.47846 3.6015 4.75091 3.6015 4.75091L3.69139 6.31353C3.69352 6.3897 3.74734 6.44986 3.8138 6.44986ZM6.01628 6.45722C6.10716 6.45722 6.18214 6.37289 6.18384 6.26921V6.27033V6.26921L6.25456 4.75203L6.18384 0.972039C6.18228 0.868515 6.10716 0.784031 6.01628 0.784031C5.92525 0.784031 5.85013 0.868355 5.84871 0.972199L5.78552 4.75075C5.78552 4.75315 5.84871 6.27017 5.84871 6.27017C5.85013 6.37289 5.92539 6.45722 6.01628 6.45722ZM4.90666 6.4513C4.98575 6.4513 5.04951 6.37978 5.05164 6.28857V6.28969L5.1377 4.75139L5.0515 1.45478C5.04937 1.36357 4.98561 1.29221 4.90652 1.29221C4.82685 1.29221 4.76309 1.36357 4.76139 1.45478L4.68485 4.75155L4.76153 6.28953C4.76323 6.37978 4.82699 6.4513 4.90666 6.4513ZM2.2066 6.4369C2.2536 6.4369 2.29166 6.3945 2.29521 6.33865L2.41989 4.74963L2.29521 3.23805C2.2918 3.18221 2.25374 3.14013 2.2066 3.14013C2.15888 3.14013 2.12083 3.18253 2.11785 3.23869L2.00808 4.74963L2.11785 6.33849C2.12097 6.3945 2.15888 6.4369 2.2066 6.4369ZM1.15634 6.34985C1.1907 6.34985 1.21853 6.31929 1.22251 6.27705L1.36253 4.74931L1.22265 3.16397C1.21853 3.12156 1.1907 3.091 1.15634 3.091C1.12155 3.091 1.09371 3.12172 1.09016 3.16397C1.09016 3.16413 0.966904 4.74931 0.966904 4.74931L1.09016 6.27673C1.09357 6.31913 1.1214 6.34985 1.15634 6.34985ZM5.45934 1.3999C5.37342 1.3999 5.30455 1.47686 5.30285 1.57542L5.23298 4.75171L5.30285 6.28009C5.30455 6.37738 5.37328 6.45434 5.45934 6.45434C5.54511 6.45434 5.61355 6.37754 5.61554 6.27897V6.28025L5.69393 4.75187L5.61554 1.5751C5.61355 1.47686 5.54511 1.3999 5.45934 1.3999ZM3.2739 6.45306C3.33326 6.45306 3.38225 6.3985 3.38509 6.32889L3.49415 4.75075L3.38509 1.73015C3.3821 1.66039 3.33326 1.60598 3.2739 1.60598C3.21397 1.60598 3.16512 1.66055 3.16257 1.73015C3.16257 1.73031 3.066 4.75075 3.066 4.75075L3.16271 6.32953C3.16512 6.3985 3.21397 6.45306 3.2739 6.45306ZM4.49172 6.30409V6.30329L4.58545 4.75123L4.49172 1.36805C4.48945 1.28405 4.43066 1.21813 4.3581 1.21813C4.28511 1.21813 4.22632 1.28389 4.22433 1.36805L4.14112 4.75107L4.22447 6.30393C4.22646 6.38714 4.28525 6.4529 4.3581 6.4529C4.4308 6.4529 4.48931 6.38714 4.49172 6.30345V6.30409ZM11.5803 2.80107C11.3577 2.80107 11.1455 2.85179 10.952 2.94316C10.8228 1.29381 9.59534 0 8.09805 0C7.73168 0 7.37454 0.0812833 7.05915 0.218729C6.9366 0.272171 6.90394 0.327213 6.90281 0.433937V6.24217C6.90408 6.35417 6.98119 6.44746 7.07818 6.4585C7.0823 6.45898 11.5512 6.46154 11.5801 6.46154C12.477 6.46154 13.2042 5.64215 13.2042 4.63139C13.2042 3.62062 12.4772 2.80107 11.5803 2.80107ZM6.5708 0.428817C6.47324 0.428817 6.39315 0.519061 6.39173 0.629945L6.31846 4.75251L6.39188 6.24873C6.39315 6.35801 6.47324 6.4481 6.5708 6.4481C6.66807 6.4481 6.74816 6.35801 6.74958 6.24713V6.24889L6.82925 4.75251L6.74958 0.629625C6.74816 0.519061 6.66807 0.428817 6.5708 0.428817Z" fill="#262626"/>
</svg>
