<svg width="13" height="11" viewBox="0 0 13 11" fill="none" xmlns="http://www.w3.org/2000/svg">
<path d="M4.11773 10.1198C8.33921 10.1198 10.6492 6.23292 10.6492 2.86794C10.6492 2.7586 10.6492 2.64925 10.6447 2.5399C11.0923 2.18203 11.4818 1.72972 11.7907 1.21777C11.3788 1.42155 10.9357 1.55576 10.4701 1.62037C10.9446 1.30723 11.3072 0.805223 11.4818 0.208773C11.0386 0.502028 10.5462 0.710785 10.0224 0.825105C9.60162 0.328063 9.00623 0.0198975 8.34816 0.0198975C7.08127 0.0198975 6.05164 1.16309 6.05164 2.56972C6.05164 2.76854 6.07402 2.96238 6.10984 3.15126C4.20278 3.04688 2.51061 2.02794 1.37802 0.487116C1.18105 0.864868 1.06913 1.30226 1.06913 1.76948C1.06913 2.65422 1.47651 3.43457 2.08981 3.89185C1.71377 3.87694 1.36011 3.76262 1.05123 3.57374C1.05123 3.58368 1.05123 3.59363 1.05123 3.60854C1.05123 4.8412 1.84359 5.87505 2.89113 6.10865C2.69863 6.1683 2.49718 6.19812 2.28678 6.19812C2.13905 6.19812 1.9958 6.18321 1.85702 6.15339C2.148 7.16735 2.99857 7.90297 4.00134 7.92286C3.21345 8.60877 2.22411 9.01635 1.14971 9.01635C0.96617 9.01635 0.782627 9.00641 0.603561 8.98155C1.61528 9.69729 2.82398 10.1198 4.11773 10.1198Z" fill="#262626"/>
</svg>
