<svg width="15" height="11" viewBox="0 0 15 11" fill="none" xmlns="http://www.w3.org/2000/svg">
<mask id="mask0_15_99" style="mask-type:alpha" maskUnits="userSpaceOnUse" x="0" y="0" width="14" height="11">
<path d="M0.0045929 0.0032959H13.4721V10.0727H0.0045929V0.0032959Z" fill="white"/>
</mask>
<g mask="url(#mask0_15_99)">
<path fill-rule="evenodd" clip-rule="evenodd" d="M6.78669 0.00012207C7.2665 0.001293 11.0167 0.0194423 11.9995 0.300758C12.5792 0.466225 13.0357 0.953772 13.1906 1.57291C13.4383 2.56038 13.4681 4.49199 13.4716 4.94136V5.13134C13.4681 5.58069 13.4383 7.51226 13.1906 8.49987C13.0357 9.11893 12.5792 9.60647 11.9995 9.77202C11.0506 10.0436 7.52184 10.0698 6.84774 10.0724H6.62438C5.95028 10.0698 2.42152 10.0436 1.47259 9.77202C0.892982 9.60647 0.43646 9.11893 0.28153 8.49987C0.0225162 7.46736 0.00179502 5.40315 0.000137329 5.07948V4.99322C0.00179502 4.66954 0.0225162 2.60526 0.28153 1.57291C0.43646 0.953772 0.892982 0.466225 1.47259 0.300758C2.45541 0.0194423 6.20563 0.001293 6.68544 0.00012207H6.78669ZM5.35823 2.91062V7.16208L8.87936 5.03643L5.35823 2.91062Z" fill="#262626"/>
</g>
</svg>
